<mxfile host="app.diagrams.net" modified="2021-02-11T17:45:57.497Z" agent="5.0 (Windows NT 10.0; Win64; x64) AppleWebKit/537.36 (KHTML, like Gecko) Chrome/88.0.4324.146 Safari/537.36" etag="Ut8IAh9FNCUoiKvZVuvw" version="14.3.1" type="github" pages="4">
  <diagram id="5MiSbR2UrDjurJRpJBML" name="Daftar">
    <mxGraphModel dx="868" dy="460" grid="1" gridSize="10" guides="1" tooltips="1" connect="1" arrows="1" fold="1" page="1" pageScale="1" pageWidth="827" pageHeight="1169" math="0" shadow="0">
      <root>
        <mxCell id="5xXk536HPguesBTuBNO6-0" />
        <mxCell id="5xXk536HPguesBTuBNO6-1" parent="5xXk536HPguesBTuBNO6-0" />
        <mxCell id="FbPBl_1szA8u5YGvOsy6-0" value="Daftar" style="rounded=0;whiteSpace=wrap;html=1;" vertex="1" parent="5xXk536HPguesBTuBNO6-1">
          <mxGeometry x="350" y="210" width="120" height="60" as="geometry" />
        </mxCell>
        <mxCell id="bYoAgf3Z1M1nF5z1MwSv-0" value="Mengisi Form" style="rounded=0;whiteSpace=wrap;html=1;" vertex="1" parent="5xXk536HPguesBTuBNO6-1">
          <mxGeometry x="350" y="300" width="120" height="60" as="geometry" />
        </mxCell>
        <mxCell id="bYoAgf3Z1M1nF5z1MwSv-1" value="Kirim Kode otp via email" style="rounded=0;whiteSpace=wrap;html=1;" vertex="1" parent="5xXk536HPguesBTuBNO6-1">
          <mxGeometry x="350" y="380" width="120" height="60" as="geometry" />
        </mxCell>
        <mxCell id="bYoAgf3Z1M1nF5z1MwSv-2" value="Memasukkan kode kurang dari 2 menit" style="rhombus;whiteSpace=wrap;html=1;" vertex="1" parent="5xXk536HPguesBTuBNO6-1">
          <mxGeometry x="349" y="490" width="130" height="130" as="geometry" />
        </mxCell>
        <mxCell id="bYoAgf3Z1M1nF5z1MwSv-3" value="Masuk Halaman Home" style="rounded=0;whiteSpace=wrap;html=1;" vertex="1" parent="5xXk536HPguesBTuBNO6-1">
          <mxGeometry x="354" y="670" width="120" height="60" as="geometry" />
        </mxCell>
      </root>
    </mxGraphModel>
  </diagram>
  <diagram id="I7B8XLtyQEoBOP-4DffG" name="Login">
    <mxGraphModel dx="868" dy="460" grid="1" gridSize="10" guides="1" tooltips="1" connect="1" arrows="1" fold="1" page="1" pageScale="1" pageWidth="827" pageHeight="1169" math="0" shadow="0">
      <root>
        <mxCell id="0" />
        <mxCell id="1" parent="0" />
        <mxCell id="p2N7e0cLyVVsZ18X0m_K-1" value="Login" style="rounded=0;whiteSpace=wrap;html=1;" vertex="1" parent="1">
          <mxGeometry x="350" y="210" width="120" height="60" as="geometry" />
        </mxCell>
        <mxCell id="4eWT4xgW7u0D-z8Ram2e-1" value="mengisi form" style="rounded=0;whiteSpace=wrap;html=1;" vertex="1" parent="1">
          <mxGeometry x="350" y="300" width="120" height="60" as="geometry" />
        </mxCell>
        <mxCell id="4eWT4xgW7u0D-z8Ram2e-2" value="Masuk Halaman Home" style="rounded=0;whiteSpace=wrap;html=1;" vertex="1" parent="1">
          <mxGeometry x="354" y="390" width="120" height="60" as="geometry" />
        </mxCell>
      </root>
    </mxGraphModel>
  </diagram>
  <diagram id="yi7QdxDmPZL3D_CDYZDI" name="Estimasi">
    <mxGraphModel dx="868" dy="1629" grid="1" gridSize="10" guides="1" tooltips="1" connect="1" arrows="1" fold="1" page="1" pageScale="1" pageWidth="827" pageHeight="1169" math="0" shadow="0">
      <root>
        <mxCell id="LOe0XO4kv1lXHmsPhThS-0" />
        <mxCell id="LOe0XO4kv1lXHmsPhThS-1" parent="LOe0XO4kv1lXHmsPhThS-0" />
        <mxCell id="LOe0XO4kv1lXHmsPhThS-2" value="Estimasi" style="rounded=0;whiteSpace=wrap;html=1;" vertex="1" parent="LOe0XO4kv1lXHmsPhThS-1">
          <mxGeometry x="340" y="40" width="120" height="40" as="geometry" />
        </mxCell>
        <mxCell id="LOe0XO4kv1lXHmsPhThS-4" value="Hitung" style="rounded=0;whiteSpace=wrap;html=1;" vertex="1" parent="LOe0XO4kv1lXHmsPhThS-1">
          <mxGeometry x="850" y="400" width="120" height="60" as="geometry" />
        </mxCell>
        <mxCell id="LOe0XO4kv1lXHmsPhThS-5" value="Input Lingkar Dada" style="rhombus;whiteSpace=wrap;html=1;" vertex="1" parent="LOe0XO4kv1lXHmsPhThS-1">
          <mxGeometry x="340" y="120" width="120" height="120" as="geometry" />
        </mxCell>
        <mxCell id="LOe0XO4kv1lXHmsPhThS-6" value="Input Panjang Badan" style="rhombus;whiteSpace=wrap;html=1;" vertex="1" parent="LOe0XO4kv1lXHmsPhThS-1">
          <mxGeometry x="490" y="200" width="110" height="110" as="geometry" />
        </mxCell>
        <mxCell id="LOe0XO4kv1lXHmsPhThS-7" value="Pilih Bangsa, &lt;br&gt;Fisiologis, Kelamin" style="rhombus;whiteSpace=wrap;html=1;" vertex="1" parent="LOe0XO4kv1lXHmsPhThS-1">
          <mxGeometry x="650" y="360" width="140" height="140" as="geometry" />
        </mxCell>
        <mxCell id="KusXwicr7v8rpbdLxKDs-0" value="Pilih Simpan" style="rhombus;whiteSpace=wrap;html=1;" vertex="1" parent="LOe0XO4kv1lXHmsPhThS-1">
          <mxGeometry x="990" y="470" width="130" height="130" as="geometry" />
        </mxCell>
        <mxCell id="KusXwicr7v8rpbdLxKDs-1" value="Pilih Eartag Sapi dan Tanggal Input" style="rhombus;whiteSpace=wrap;html=1;" vertex="1" parent="LOe0XO4kv1lXHmsPhThS-1">
          <mxGeometry x="1150" y="530" width="130" height="130" as="geometry" />
        </mxCell>
        <mxCell id="KusXwicr7v8rpbdLxKDs-2" value="Upload Foto Sapi" style="rhombus;whiteSpace=wrap;html=1;" vertex="1" parent="LOe0XO4kv1lXHmsPhThS-1">
          <mxGeometry x="1310" y="600" width="130" height="130" as="geometry" />
        </mxCell>
        <mxCell id="KusXwicr7v8rpbdLxKDs-4" value="Tersimpan di Database" style="rounded=0;whiteSpace=wrap;html=1;" vertex="1" parent="LOe0XO4kv1lXHmsPhThS-1">
          <mxGeometry x="1490" y="660" width="120" height="60" as="geometry" />
        </mxCell>
        <mxCell id="KusXwicr7v8rpbdLxKDs-5" value="END" style="rounded=1;whiteSpace=wrap;html=1;" vertex="1" parent="LOe0XO4kv1lXHmsPhThS-1">
          <mxGeometry x="1654" y="760" width="120" height="60" as="geometry" />
        </mxCell>
        <mxCell id="KusXwicr7v8rpbdLxKDs-6" value="START" style="rounded=1;whiteSpace=wrap;html=1;" vertex="1" parent="LOe0XO4kv1lXHmsPhThS-1">
          <mxGeometry x="340" y="-40" width="120" height="40" as="geometry" />
        </mxCell>
      </root>
    </mxGraphModel>
  </diagram>
  <diagram id="eNQh1hMTE4Dob25QrNmU" name="Tambah Sapi">
    <mxGraphModel dx="868" dy="460" grid="1" gridSize="10" guides="1" tooltips="1" connect="1" arrows="1" fold="1" page="1" pageScale="1" pageWidth="827" pageHeight="1169" math="0" shadow="0">
      <root>
        <mxCell id="xGmS_sZ2iJtDIFyQ9uMS-0" />
        <mxCell id="xGmS_sZ2iJtDIFyQ9uMS-1" parent="xGmS_sZ2iJtDIFyQ9uMS-0" />
        <mxCell id="xGmS_sZ2iJtDIFyQ9uMS-3" value="Tambah Sapi" style="rounded=0;whiteSpace=wrap;html=1;" vertex="1" parent="xGmS_sZ2iJtDIFyQ9uMS-1">
          <mxGeometry x="340" y="160" width="120" height="60" as="geometry" />
        </mxCell>
        <mxCell id="xGmS_sZ2iJtDIFyQ9uMS-4" value="Input Eartag" style="rhombus;whiteSpace=wrap;html=1;" vertex="1" parent="xGmS_sZ2iJtDIFyQ9uMS-1">
          <mxGeometry x="335" y="280" width="130" height="130" as="geometry" />
        </mxCell>
        <mxCell id="xGmS_sZ2iJtDIFyQ9uMS-5" value="Pilih Bangsa Sapi" style="rhombus;whiteSpace=wrap;html=1;" vertex="1" parent="xGmS_sZ2iJtDIFyQ9uMS-1">
          <mxGeometry x="500" y="360" width="130" height="130" as="geometry" />
        </mxCell>
        <mxCell id="xGmS_sZ2iJtDIFyQ9uMS-6" value="Pilih Tanggal Lahir" style="rhombus;whiteSpace=wrap;html=1;" vertex="1" parent="xGmS_sZ2iJtDIFyQ9uMS-1">
          <mxGeometry x="650" y="440" width="130" height="130" as="geometry" />
        </mxCell>
        <mxCell id="xGmS_sZ2iJtDIFyQ9uMS-7" value="Pilih Kelamin" style="rhombus;whiteSpace=wrap;html=1;" vertex="1" parent="xGmS_sZ2iJtDIFyQ9uMS-1">
          <mxGeometry x="780" y="520" width="130" height="130" as="geometry" />
        </mxCell>
        <mxCell id="xGmS_sZ2iJtDIFyQ9uMS-8" value="Simpan" style="rounded=0;whiteSpace=wrap;html=1;" vertex="1" parent="xGmS_sZ2iJtDIFyQ9uMS-1">
          <mxGeometry x="960" y="660" width="120" height="60" as="geometry" />
        </mxCell>
      </root>
    </mxGraphModel>
  </diagram>
</mxfile>
